<?xml version="1.0" encoding="UTF-8" standalone="no"?><!DOCTYPE svg PUBLIC "-//W3C//DTD SVG 1.1//EN" "http://www.w3.org/Graphics/SVG/1.1/DTD/svg11.dtd"><svg width="100%" height="100%" viewBox="0 0 220 262" version="1.1" xmlns="http://www.w3.org/2000/svg" xmlns:xlink="http://www.w3.org/1999/xlink" xml:space="preserve" style="fill-rule:evenodd;clip-rule:evenodd;stroke-linecap:round;stroke-linejoin:round;stroke-miterlimit:1.5;"><g><path id="low-path" d="M83.775,233.62c14.092,-0.002 33.23,-8.556 46.477,-23.422c-4.139,0.639 -7.756,0.838 -10.667,0.838c-0.385,0 -0.769,-0.004 -1.152,-0.01c-4.243,5.16 -10.192,7.961 -17.077,7.961c-4.568,0 -11.887,-1.483 -14.614,-10.378c-12.582,-1.276 -24.46,-5.664 -34.735,-12.75c-0.321,1.063 -0.783,2.103 -1.423,3.083c-2.016,3.083 -5.343,4.781 -9.371,4.781c-1.31,0 -2.726,-0.181 -4.209,-0.535c-15.055,-3.615 -33.938,-24.628 -36.517,-37.092c-1.267,-6.121 -0.043,-11.848 3.442,-16.13c3.156,-3.877 7.908,-6.1 13.036,-6.1c1.064,0 2.13,0.095 3.191,0.279c-0.452,-3.332 -0.68,-6.698 -0.68,-10.078c0,-13.391 3.546,-26.413 10.287,-37.886c-0.269,-0.728 -0.477,-1.494 -0.63,-2.297c-0.749,-3.997 0.554,-8.263 3.67,-12.017c0.47,-0.567 0.976,-1.114 1.506,-1.637c-4.596,-1.513 -6.656,-4.769 -6.975,-7.667c-0.441,-4.02 2.205,-7.599 6.291,-8.507c2.436,-0.541 11.448,-5.606 16.238,-10.162c14.175,-21.97 40.35,-34.752 69.913,-33.845c13.644,0.411 26.104,9.613 36.805,17.394c6.682,0.383 55.607,-4.53 56.962,-4.191c3.23,0.808 5.371,3.671 5.456,7.293c0.159,6.862 -7.455,19.372 -24.306,24.427c-2.736,0.821 -5.63,1.238 -8.599,1.238c-1.273,0 -2.564,-0.077 -3.873,-0.227c0.864,2.015 1.67,4.078 2.415,6.186c10.744,30.359 13.313,98.446 -19.106,123.213c-8.852,29.909 -39.284,57.102 -73.248,65.146c-3.95,0.935 -8.1,1.41 -12.335,1.41c-19.165,0 -37.049,-9.61 -46.27,-19.134c-5.482,-5.662 -8.289,-11.485 -8.116,-16.841c0.32,-9.891 6.861,-16.537 16.276,-16.537c8.963,0 18.056,5.927 23.729,15.469c4.287,7.211 12.266,8.725 18.205,8.725l0.004,0Zm-50.139,-134.282c-7.415,11.102 -11.561,30.142 -9.076,42.853c3.85,-3.719 11.345,-2.424 12.838,0.372c0.838,-9.409 9.248,-28.496 12.446,-33.295c-0.164,-3.474 -5.72,-5.517 -8.016,-5.921c-2.747,-0.484 -5.499,-1.191 -8.192,-4.009Z"/><g id="wapuu-body-behind"><path id="belly" d="M61.407,75.714c2.503,4.339 8.198,9.594 5.134,19.104c-3.065,9.509 -13.653,13.497 -19.914,30.214c-6.261,16.717 -8.817,36.659 -0.906,53.601c1.165,2.495 1.507,4.413 4.123,6.775c9.148,8.257 25.24,16.865 39.815,17.656c24.913,1.352 43.8,1.195 59.198,-5.331c16.223,-6.875 28.696,-22.559 32.708,-44.321c4.013,-21.762 -20.198,-30.451 -28.22,-53.376c-7.806,-22.308 -30.197,-37.008 -71.165,-31.808c-13.132,1.666 -21.483,6.254 -20.773,7.486Z" style="fill:#ffdc52;"/><path id="arm" d="M42.73,100.054c6.211,1.196 8.363,4.017 9.388,6.183c3.75,-4.829 7.971,-6.888 9.57,-10.699c1.599,-3.811 1.705,-7.264 0.703,-9.638c-1.002,-2.373 -5.486,-2.931 -8.261,-2.747c0.135,5.154 0.559,7.631 -2.494,10.818c-3.052,3.186 -5.266,5.867 -8.906,6.083Z" style="fill:#ffdc52;"/><path d="M36.771,161.115c-1.112,-5.133 -0.265,-9.03 0.04,-14.674c-2.116,-3.6 -9.143,-4.652 -11.466,-0.184c4.851,3.174 7.792,7.635 11.426,14.858Z" style="fill:#ffdc52;"/></g><g id="tour-eiffel"><path id="sol" d="M97.877,157.707c33.109,6.09 58.108,21.255 55.793,33.844c-2.316,12.589 -31.076,17.865 -64.185,11.775c-33.108,-6.091 -58.108,-21.256 -55.792,-33.845c2.316,-12.589 31.076,-17.865 64.184,-11.774Z" style="fill:#7ec579;"/><g id="tour"><g id="pied"><path d="M106.443,167.387l0.066,-1.103l7.362,-2.789l7.08,3.449l-0.083,1.102l-7.689,3.981l-6.736,-4.64Z" style="fill:#475d62;"/><path d="M106.521,166.282l7.427,-3.892l6.997,4.55l-7.689,3.982l-6.735,-4.64Z" style="fill:#889498;"/></g><g id="pied1"><path d="M51.853,168.02l0.011,-0.972l7.374,-2.958l7.407,2.537l-0.029,0.973l-7.648,4.028l-7.115,-3.608Z" style="fill:#475d62;"/><path d="M51.876,167.045l7.385,-3.931l7.378,3.51l-7.649,4.028l-7.114,-3.607Z" style="fill:#889498;"/></g><g id="pied2"><path d="M77.809,182.581l-0.08,-1.156l7.882,-3.105l8.433,3.431l0.06,1.155l-8.084,4.362l-8.211,-4.687Z" style="fill:#475d62;"/><path d="M77.742,181.422l7.802,-4.261l8.493,4.586l-8.084,4.362l-8.211,-4.687Z" style="fill:#889498;"/></g><path d="M112.991,170.172l-5.453,-3.74c0,0 0.851,-3.155 -1.853,-4.959c2.116,0.172 8.272,1.746 7.306,8.699Z" style="fill:#003554;"/><path d="M65.559,166.659l-6.438,3.522c-0.514,-2.028 1.838,-8.013 7.2,-8.691c-1.003,2.004 -1.663,2.664 -0.762,5.169Z" style="fill:#03273a;"/><g id="jambes"><path d="M119.737,166.887l-6.72,3.313c0,0 0.713,-6.902 -8.602,-8.769c-5.885,-1.18 -11.668,3.774 -12.333,5.871c-1.904,6.002 -0.247,12.911 0.862,14.418c-2.321,1.402 -6.823,3.701 -6.823,3.701c0,0 -0.093,-11.276 -0.097,-24.304c4.598,-2.944 14.506,-8.503 17.346,-10.298c4.984,6.105 11.042,9.887 16.367,16.068Z" style="fill:#006494;"/><path d="M52.41,166.876l6.718,3.315c0,0 -0.71,-6.902 8.605,-8.766c5.885,-1.178 11.667,3.777 12.332,5.875c1.902,6.003 0.242,12.911 -0.867,14.417c2.321,1.403 6.902,3.784 6.902,3.784c0,0 0.016,-11.356 0.025,-24.384c-4.597,-2.945 -14.504,-8.507 -17.343,-10.304c-4.986,6.104 -11.045,9.884 -16.372,16.063Z" style="fill:#003554;"/></g><g id="étage"><path d="M105.415,148.13l-19.343,11.346l-18.426,-11.202l0.039,-0.023l-0.069,0.03l0.03,2.878l18.425,11.202l19.346,-11.348l0.015,-2.876l-0.017,-0.007Z" style="fill:#475d62;"/><path d="M86.461,152.658l7.799,-4.657l-7.314,-4.998l-8.753,5.081l8.268,4.574Z" style="fill:#35484c;"/><path d="M67.646,148.274l18.678,-11.081l19.093,10.935l-19.345,11.348l-18.426,-11.202Zm25.697,-0.196l-6.83,-4.037l-6.995,4.151l6.621,4.14l7.204,-4.254Z" style="fill:#889498;"/></g><g id="top"><path d="M97.087,150.287l-3.685,-2.324l-2.383,-6.331l2.223,0l3.845,8.655Z" style="fill:#003554;"/><path d="M79.616,148.333l-4.358,1.95l4.058,-9.588l2.905,0.935l-2.605,6.703Z" style="fill:#03273a;"/><path d="M97.557,140.982c1.079,2.656 3.236,7.12 3.236,7.12l-3.816,2.183l-3.819,-8.61l-3.767,1.367l0.965,10.995l-4.231,2.455l0.01,-60.016l2.414,-0.795c0,0 0.959,25.494 9.008,45.301Z" style="fill:#006494;"/><path d="M74.699,140.979c-1.08,2.655 -3.238,7.118 -3.238,7.118l3.815,2.184l3.822,-8.608l3.767,1.368l-0.969,10.994l4.229,2.457l0.01,-60.016l-2.412,-0.796c0,0 -0.968,25.494 -9.024,45.299Z" style="fill:#003554;"/></g><g id="antenne"><path d="M90.011,90.481l-0.001,4.699l-4.102,1.614l0.001,-4.75l4.102,-1.563Z" style="fill:#006494;"/><path d="M86.326,89.158l3.726,1.455l-4.063,1.574l-4.207,-1.707l4.544,-1.322Z" style="fill:#0082ba;"/><path d="M81.816,90.48l0,4.699l4.101,1.616l0.001,-4.751l-4.102,-1.564Z" style="fill:#003554;"/><path d="M85.991,77.049l1.783,13.454l-1.785,0.73l0.002,-14.184Z" style="fill:#006494;"/><path d="M85.991,77.049l-1.685,13.427l1.683,0.757l0.002,-14.184Z" style="fill:#003554;"/></g></g></g><g id="confettis"><circle cx="136.344" cy="119.363" r="3.128" style="fill:#fff;"/><circle cx="57.114" cy="127.703" r="3.128" style="fill:#f80437;"/><circle cx="76.14" cy="111.284" r="3.128" style="fill:#0695e4;"/><circle cx="116.54" cy="86.735" r="3.128" style="fill:#c2235e;"/><circle cx="133.476" cy="138.389" r="3.128" style="fill:#725296;"/><circle cx="112.104" cy="111.545" r="3.128" style="fill:#fff;"/><circle cx="131.13" cy="106.332" r="3.128" style="fill:#fff;"/><circle cx="50.858" cy="155.59" r="3.128" style="fill:#ffb80a;"/><circle cx="73.215" cy="140.939" r="3.593" style="fill:#c4cf36;"/><circle cx="74.834" cy="90.174" r="3.128" style="fill:#9cc359;"/><circle cx="124.181" cy="121.652" r="1.784" style="fill:#fff;"/><circle cx="96.243" cy="105.91" r="1.784" style="fill:#da154b;"/><circle cx="94.722" cy="82.889" r="1.784" style="fill:#b1c947;"/><circle cx="34.779" cy="137.33" r="0.915" style="fill:#b1c947;"/><circle cx="132.294" cy="92.227" r="1.784" style="fill:#f80437;"/><circle cx="122.869" cy="102.485" r="1.784" style="fill:#9cc359;"/><circle cx="105.996" cy="93.366" r="1.784" style="fill:#0695e4;"/><circle cx="57.15" cy="95.903" r="1.784" style="fill:#725296;"/><circle cx="63.509" cy="113.834" r="1.784" style="fill:#f0093d;"/><circle cx="49.436" cy="136.243" r="1.784" style="fill:#0695e4;"/><circle cx="46.143" cy="165.455" r="0.952" style="fill:#0695e4;"/><circle cx="104.792" cy="130.196" r="1.784" style="fill:#f80436;"/><circle cx="32.903" cy="108.695" r="1.132" style="fill:#f80436;"/><circle cx="81.408" cy="76.841" r="1.132" style="fill:#f80436;"/><circle cx="151.704" cy="132.177" r="1.784" style="fill:#c4cf36;"/><circle cx="116.051" cy="146.146" r="1.784" style="fill:#c4cf36;"/><circle cx="98.954" cy="120.606" r="1.784" style="fill:#ff9610;"/><circle cx="74.456" cy="163.869" r="1.784" style="fill:#9cc359;"/><circle cx="69.852" cy="129.575" r="1.784" style="fill:#725296;"/><circle cx="63.04" cy="148.909" r="1.002" style="fill:#725296;"/><circle cx="55.367" cy="173.929" r="1.002" style="fill:#0695e4;"/><circle cx="69.963" cy="121.638" r="1.002" style="fill:#ffb80a;"/><circle cx="70.763" cy="176.014" r="1.002" style="fill:#c4cf36;"/><circle cx="59.221" cy="181.285" r="1.002" style="fill:#c2235e;"/><circle cx="81.638" cy="191.093" r="1.002" style="fill:#f80437;"/><circle cx="54.284" cy="118.052" r="1.002" style="fill:#c4cf36;"/><circle cx="72.382" cy="99.955" r="1.002" style="fill:#30a2bd;"/><circle cx="105.074" cy="104.458" r="1.002" style="fill:#f80437;"/><circle cx="104.991" cy="81.774" r="1.002" style="fill:#ffb80a;"/><circle cx="104.991" cy="81.774" r="1.002" style="fill:#ffb80a;"/><circle cx="114.415" cy="76.019" r="1.002" style="fill:#0695e4;"/><circle cx="124.589" cy="78.771" r="1.002" style="fill:#30a2bd;"/><circle cx="124.756" cy="87.695" r="1.002" style="fill:#f80;"/><circle cx="96.067" cy="93.366" r="1.002" style="fill:#725296;"/><circle cx="86.308" cy="96.285" r="1.002" style="fill:#76c5f0;"/><circle cx="93.147" cy="134.982" r="1.002" style="fill:#c4cf39;"/><circle cx="60.705" cy="136.9" r="1.002" style="fill:#c32560;"/><circle cx="118.917" cy="151.829" r="1.002" style="fill:#76c5f0;"/><circle cx="142.686" cy="131.729" r="1.002" style="fill:#76c5f0;"/><circle cx="115.249" cy="124.307" r="1.002" style="fill:#fff;"/><circle cx="115.538" cy="98.871" r="1.002" style="fill:#c4cf36;"/><circle cx="102.928" cy="137.634" r="1.002" style="fill:#0695e4;"/><circle cx="40.088" cy="114.612" r="1.002" style="fill:#0695e4;"/><circle cx="34.658" cy="123.227" r="1.798" style="fill:#ffd200;"/><circle cx="128.748" cy="146.708" r="1.002" style="fill:#f80437;"/><circle cx="145.857" cy="112.882" r="1.002" style="fill:#fff;"/><circle cx="133.263" cy="126.81" r="1.002" style="fill:#fff;"/><circle cx="115.332" cy="137.234" r="1.002" style="fill:#ffb80a;"/><circle cx="115.332" cy="137.234" r="1.002" style="fill:#ffb80a;"/><circle cx="85.845" cy="128.4" r="2.296" style="fill:#f80;"/><circle cx="87.84" cy="112.574" r="1.002" style="fill:#30a2bd;"/><circle cx="152.587" cy="142.825" r="1.002" style="fill:#f80;"/><circle cx="72.335" cy="153.325" r="1.002" style="fill:#c2235e;"/><circle cx="65.184" cy="103.333" r="1.002" style="fill:#ffb80a;"/><circle cx="65.184" cy="103.333" r="1.002" style="fill:#ffb80a;"/></g><g id="snowglobe"><g opacity="0.7"><path d="M159.945,112.223c-10.317,-27.459 -23.875,-36.963 -40.292,-43.056c-3.171,-1.177 -12.39,1.653 -15.505,0.93c-13.609,1.349 -19.189,-1.221 -21.425,-3.917c-0.589,-0.107 -1.164,-0.216 -1.735,-0.326c-3.01,8.765 -18.683,14.969 -23.189,14.745c-1.941,-0.098 -3.394,-1.113 -4.459,-2.351c-17.747,11.303 -29.447,33.69 -29.447,56.253c0,30.459 30.732,66.963 67.455,68.563c0,0 14.876,-12.214 26.2,-32.401c5.91,-15.263 26.096,-23.142 43.063,-16.865c1.861,-6.252 2.859,-12.876 2.859,-19.731c0,-7.635 -3.525,-21.844 -3.525,-21.844Z" style="fill:#fff;fill-opacity:0.3;fill-rule:nonzero;"/><path d="M73.12,74.884c-0.093,-0.001 -0.198,0.009 -0.293,0.009c-5.599,3.658 -12.323,5.841 -15.029,5.705c-1.78,-0.089 -3.145,-0.955 -4.181,-2.053c-0.933,0.487 -1.804,1.05 -2.558,1.709c-5.177,4.521 -8.305,5.063 -12.188,10.769c-3.885,5.706 -9.092,13.934 -11.109,20.536c-1.996,6.534 -3.869,15.387 -3.869,22.218c0,12.248 4.652,24.031 10.244,34.003c9.605,9.243 22.649,14.937 37.031,14.937c29.507,0 53.428,-23.92 53.428,-53.428c0,-29.214 -22.373,-53.937 -51.476,-54.405" style="fill:#fff;fill-opacity:0.5;fill-rule:nonzero;"/><path d="M71.077,80.259c-14.325,10.34 -23.648,27.132 -23.648,46.074c0,31.393 25.61,56.881 57.154,56.881c5.935,0 11.661,-0.903 17.045,-2.577c-9.416,6.797 -20.994,10.807 -33.505,10.807c-31.545,0 -57.155,-25.488 -57.155,-56.881c0,-25.486 16.879,-47.08 40.109,-54.304Z" style="fill:#fff;fill-opacity:0.8;"/><path d="M90.532,190.144c17.992,-5.866 32.991,-19.949 39.18,-39.272c10.259,-32.025 -7.537,-66.394 -39.716,-76.702c-6.055,-1.94 -12.19,-2.89 -18.23,-2.941c11.827,-3.858 24.948,-4.164 37.711,-0.076c32.179,10.308 49.975,44.677 39.716,76.702c-8.328,25.999 -32.603,42.511 -58.661,42.289Z" style="fill:#fff;fill-opacity:0.5;"/></g></g><g id="wapuu-color"><path d="M143.925,200.96c-18.678,34.315 -68.76,51.553 -83.4,26.932c-9.555,-16.073 -28.613,-16.903 -29.102,-1.739c-0.435,13.467 31.109,35.394 59.508,28.669c33.013,-7.819 62.115,-34.749 69.5,-62.984l-16.506,9.122Z" style="fill:#f80;"/><path d="M49.667,73.689c-16.941,4.778 -18.679,-3.04 -14.77,-3.909c3.91,-0.869 14.334,-6.949 19.547,-12.162l-4.777,16.071Z" style="fill:#f80;"/><path d="M179.108,74.125c-2.263,-6.396 -5.088,-12.317 -8.431,-17.671c-8.428,-3.992 -14.875,-9.788 -16.328,-10.998c-2.606,-2.171 -8.673,-8.017 -0.869,-7.384c0.273,0.022 0.568,0.041 0.854,0.062c-9.667,-7.433 -21.348,-11.819 -34.735,-12.224c-28.668,-0.868 -52.558,11.728 -65.155,31.708c-8.496,13.476 -2.171,20.849 1.738,22.587c3.91,1.738 20.415,-4.777 25.193,-13.465c11.294,6.949 20.047,4.789 30.907,1.315c0,0 3.656,1.154 6.78,2.02c7.718,2.138 32.171,11.877 40.912,42.132c-0.088,0.125 0.387,0.692 0.464,1.063c0.281,1.372 2.284,9.729 2.981,18.904c0.06,0.803 0.051,1.832 0.051,2.644c0,2.343 -0.136,3.734 -0.297,5.7c-0.329,3.959 -0.933,8.039 -2.699,13.251c6.387,5.11 11.959,12.737 12.881,23.975c17.63,-28.915 14.106,-80.016 5.753,-103.619" style="fill:#ffd200;fill-rule:nonzero;"/><path d="M26.211,153.179c-10.606,-8.16 -22.588,-0.868 -19.982,11.728c2.141,10.349 19.635,29.575 32.144,32.578c10.858,2.606 8.664,-9.111 6.949,-13.031c-3.04,-6.95 -13.465,-26.93 -19.111,-31.275" style="fill:#ffd200;fill-rule:nonzero;"/><path d="M163.191,145.485c-0.478,3.274 -1.354,6.21 -2.805,8.437c-12.789,-7.377 -35.893,0.968 -42.814,16.691c-3.461,-8.814 -14.88,-25.563 -24.469,-19.171c-10.425,6.949 -3.475,21.718 -1.737,33.012c1.737,11.294 -4.344,28.668 9.99,28.668c7.48,0 11.763,-4.14 14.152,-8.099c10.65,0.802 27.686,-1.317 44.923,-13.185c8.65,-5.956 14.699,-15.315 18.744,-26.333c-2.817,-9.677 -9.427,-15.983 -15.984,-20.02" style="fill:#ffd200;fill-rule:nonzero;"/><path d="M160.474,153.77c-0.031,0.049 -0.057,0.104 -0.088,0.152c-12.789,-7.378 -35.893,0.968 -42.814,16.692c-3.461,-8.815 -14.88,-25.563 -24.469,-19.172c-10.425,6.95 -3.475,21.718 -1.737,33.012c1.737,11.294 -4.344,28.668 9.99,28.668c7.48,0 11.763,-4.14 14.152,-8.098c10.65,0.801 27.686,-1.318 44.923,-13.185c5.21,-3.588 9.467,-8.422 12.924,-14.095c-0.922,-11.238 -6.494,-18.865 -12.881,-23.974" style="fill:#ffd200;fill-rule:nonzero;"/><path d="M48.797,80.205c-4.343,-1.737 -15.203,5.648 -13.9,12.597c1.303,6.95 9.122,6.95 14.334,1.737c5.213,-5.212 3.777,-12.65 -0.434,-14.334" style="fill:#ffd200;fill-rule:nonzero;"/><path d="M154.646,115.438l0.232,-0.245c-11.026,9.821 -26.943,14.286 -38.789,11.648c-13.869,-3.084 -11.108,-12.666 -4.602,-17.381c6.507,-4.716 23.677,-6.02 32.974,-14.332c9.295,-8.31 10.254,-14.173 15.541,-31.199c0,0 -0.031,-0.108 -0.088,-0.299c28.765,13.055 8.167,38.713 -5.268,51.808" style="fill:#ffd200;fill-rule:nonzero;"/></g><g id="hight-path"><path d="M173.792,57.806c-2.35,-0.92 -4.583,-2.021 -6.648,-3.184c4.038,5.862 7.449,12.6 10.121,20.154c9.957,28.136 12.65,94.389 -17.942,115.452c-19.437,13.383 -37.475,13.406 -44.328,12.802c-1.053,-0.09 -2.024,0.697 -2.12,1.773c-0.095,1.075 0.699,2.025 1.775,2.12c1.275,0.114 2.916,0.206 4.867,0.206c9.162,0 25.133,-2.052 42.022,-13.681c18.399,-12.668 24.207,-38.49 25.84,-57.919c2.059,-24.501 -1.745,-48.823 -6.429,-62.057c-2.002,-5.662 -4.403,-10.893 -7.158,-15.666m-57.072,11.23c-11.495,3.678 -23.616,6.208 -34.698,0.326c-6.167,8.563 -21.818,14.768 -26.634,12.63c-2.313,-1.03 -5.235,-3.605 -6.492,-7.743c-1.075,-3.54 -1.272,-9.478 3.895,-17.673c13.421,-21.288 38.414,-33.494 66.866,-32.621c14.482,0.439 27.424,5.45 38.058,14.377c-1.533,-0.073 -2.962,-0.157 -4.235,-0.26c-1.068,-0.088 -1.868,-0.049 -2.461,0.082c-9.125,-6.375 -19.772,-9.936 -31.478,-10.291c-27.056,-0.818 -50.769,10.695 -63.444,30.798c-3.465,5.496 -4.663,10.494 -3.46,14.45c0.876,2.882 2.885,4.661 4.339,5.308c2.462,1.097 18.133,-4.342 22.686,-12.621c0.258,-0.469 0.696,-0.812 1.215,-0.947c0.518,-0.136 1.068,-0.055 1.523,0.225c10.691,6.578 22.707,3.571 33.129,0.236c1.032,-0.327 2.128,0.238 2.458,1.266c0.328,1.029 -0.237,2.128 -1.267,2.458" style="fill-rule:nonzero;"/><path d="M80.082,258.01c-15.202,0 -30.111,-6.51 -39.566,-14.238c-7.193,-5.88 -11.22,-12.325 -11.047,-17.682c0.208,-6.434 3.447,-10.928 8.888,-12.329c6.909,-1.784 17.323,2.158 23.848,13.132c5.373,9.034 15.136,10.785 22.337,10.629c21.462,-0.407 46.252,-16.527 57.666,-37.496c0.515,-0.948 1.703,-1.299 2.651,-0.783c0.947,0.516 1.299,1.703 0.783,2.651c-12.033,22.107 -38.269,39.105 -61.025,39.536c-11.737,0.194 -20.831,-4.232 -25.771,-12.54c-5.543,-9.32 -14.008,-12.762 -19.513,-11.343c-3.692,0.951 -5.807,4.029 -5.957,8.669c-0.13,4.071 3.463,9.503 9.613,14.53c11.058,9.04 30.034,16.31 47.492,12.174c32.092,-7.6 60.715,-33.497 68.059,-61.576c0.274,-1.045 1.334,-1.67 2.386,-1.396c1.044,0.272 1.669,1.341 1.396,2.386c-7.689,29.394 -37.523,56.474 -70.94,64.391c-3.731,0.882 -7.526,1.285 -11.3,1.285" style="fill-rule:nonzero;"/><path d="M151.684,82.938c-2.04,3.891 -4.561,7.217 -7.884,10.297c-5.22,4.839 -13.294,7.562 -20.417,9.964c-5.401,1.82 -10.063,3.389 -13.057,5.661c-4.601,3.487 -6.932,8.426 -5.936,12.582c0.703,2.928 3.295,6.735 11.668,8.242c15.641,2.817 36.182,-5.848 46.761,-19.727c0.654,-0.858 0.489,-2.084 -0.369,-2.74c-0.86,-0.654 -2.087,-0.489 -2.74,0.371c-9.768,12.812 -28.636,20.828 -42.959,18.249c-4.912,-0.885 -7.952,-2.769 -8.558,-5.306c-0.625,-2.606 1.18,-6.045 4.494,-8.555c2.493,-1.884 7.082,-3.434 11.946,-5.072c7.494,-2.527 15.992,-5.392 21.826,-10.802c3.546,-3.287 6.728,-7.859 8.937,-11.912c1.962,-3.603 -1.955,-4.605 -3.712,-1.252Z" style="fill-rule:nonzero;"/><path d="M97.627,152.628c-1.08,0 -2.087,0.322 -3.078,0.983c-6.156,4.103 -4.914,11.53 -2.314,22.387c0.642,2.687 1.307,5.465 1.707,8.059c0.519,3.373 0.393,7.143 0.272,10.785c-0.189,5.66 -0.383,11.512 2.057,14.034c1.067,1.103 2.731,1.64 5.084,1.64c11.917,0 14.278,-12.512 14.375,-13.044c0.018,-0.112 0.047,-0.229 0.081,-0.337c2.323,-7.356 3.009,-13.309 -0.017,-23.679c-1.935,-6.968 -11.137,-20.828 -18.167,-20.828m3.728,63.101c-3.788,0 -6.758,-1.087 -8.831,-3.229c-3.976,-4.112 -3.744,-11.086 -3.52,-17.83c0.114,-3.406 0.231,-6.927 -0.213,-9.82c-0.366,-2.382 -0.978,-4.936 -1.625,-7.639c-2.414,-10.082 -5.149,-21.511 4.492,-27.937c1.849,-1.234 3.857,-1.858 5.969,-1.858c11.32,0 21.298,17.834 23.18,24.613c3.349,11.478 2.557,18.441 0.026,26.512c-1.106,6.051 -6.531,17.188 -19.478,17.188" style="fill-rule:nonzero;"/><path d="M143.667,150.073c-11.987,1.214 -21.875,8.048 -27.125,18.752c-0.477,0.969 -0.076,2.139 0.893,2.616c0.277,0.136 0.572,0.2 0.86,0.2c0.721,0 1.416,-0.403 1.756,-1.094c6.358,-12.958 17.772,-15.952 24.01,-16.586c8.494,-0.855 17.093,1.692 20.471,6.061c0.658,0.855 1.888,1.011 2.74,0.351c0.853,-0.66 1.012,-1.887 0.352,-2.741c-1.213,-1.57 -2.904,-2.937 -4.918,-4.076c1.798,-6.308 2.718,-12.859 2.718,-19.489c0,-7.683 -1.218,-15.24 -3.625,-22.462c-0.342,-1.024 -1.448,-1.577 -2.471,-1.237c-1.025,0.342 -1.578,1.448 -1.238,2.472c2.274,6.823 3.425,13.964 3.425,21.227c0,6.06 -0.816,12.05 -2.403,17.828c-4.505,-1.668 -9.968,-2.379 -15.445,-1.822" style="fill-rule:nonzero;"/><path d="M9.5,151.441c-4.446,2.754 -3.052,8.894 -3.182,10.464c-0.813,9.796 18.937,32.876 30.523,35.656c0.886,0.213 3.024,0.559 5.414,0.559c1.807,0 3.056,-1.692 4.055,-3.919c1.058,-2.357 0.218,-6.972 -0.973,-9.503c-6.206,-13.197 -14.854,-27.813 -19.992,-31.766c-2.588,-1.99 -6.22,-4.123 -8.903,-4.123c0,0 -4.668,1.224 -6.942,2.632Zm31.712,48.373c-1.002,0 -2.112,-0.144 -3.295,-0.429c-13.22,-3.173 -31.314,-23.023 -33.602,-34.082c-1.023,-4.946 -1.176,-10.767 1.552,-14.12c2.412,-2.959 5.566,-5.409 10.346,-6.326c3.487,-0.67 6.164,-0.249 9.773,1.769c11.689,6.537 22.667,32.431 24.776,41.214c1.018,4.241 0.766,5.706 -1.96,9.875c-0.898,1.375 -4.177,2.099 -7.59,2.099" style="fill-rule:nonzero;"/><path d="M6.465,157.419c-0.607,3.066 -0.237,3.919 0.543,7.693c1.992,9.625 17.596,27.006 28.433,31.582c2.604,1.1 4.424,1.426 6.814,1.426c1.807,0 3.523,-1.359 4.522,-3.586c1.058,-2.357 0.551,-6.504 -0.639,-9.036c-6.206,-13.196 -15.655,-29.814 -20.793,-33.767c-2.588,-1.99 -5.828,-2.522 -8.511,-2.522c-6.136,0.76 -9.657,4.607 -10.369,8.21Zm34.747,42.395c-1.002,0 -2.112,-0.144 -3.295,-0.429c-13.22,-3.173 -31.314,-23.023 -33.602,-34.082c-1.023,-4.946 -1.176,-10.767 1.552,-14.12c2.412,-2.959 5.566,-5.409 10.346,-6.326c3.487,-0.67 6.164,-0.249 9.773,1.769c11.689,6.537 22.667,32.431 24.776,41.214c1.018,4.241 0.766,5.706 -1.96,9.875c-0.898,1.375 -4.177,2.099 -7.59,2.099" style="fill-rule:nonzero;"/><path d="M45.328,81.485c-2.365,-0.792 -5.945,2.006 -9.116,5.478c-1.448,1.585 -2.487,5.032 -1.167,6.938c1.848,2.667 4.487,2.398 6.157,2.398c2.195,0 4.678,-1.174 6.647,-3.142c2.196,-2.195 3.18,-5.093 2.635,-7.752c-0.339,-1.651 -3.224,-3.335 -4.394,-3.803c-0.193,-0.077 -0.456,-0.117 -0.762,-0.117m-4.126,18.724c-4.258,0 -9.184,-1.24 -9.999,-5.587c-0.531,-2.832 -0.359,-7.312 2.001,-10.154c3.062,-3.692 8.523,-6.893 12.124,-6.893c0.81,0 1.555,0.135 2.213,0.398c2.395,0.958 6.167,3.703 6.772,6.645c0.812,3.95 -0.571,8.176 -3.7,11.303c-2.725,2.725 -6.156,4.288 -9.411,4.288" style="fill-rule:nonzero;"/><path d="M40.232,77.188c-4.422,0 -6.632,-1.339 -7.693,-2.411c-1.159,-1.174 -1.605,-2.718 -1.189,-4.13c0.41,-1.394 1.578,-2.431 3.123,-2.775c3.368,-0.749 13.45,-6.498 18.589,-11.636c0.764,-0.763 2,-0.763 2.764,0c0.764,0.763 0.764,2.002 0,2.764c-5.384,5.385 -16.115,11.713 -20.504,12.689c-0.183,0.04 -0.24,0.103 -0.241,0.103c0.019,-0.007 0.134,0.211 0.566,0.504c0.815,0.55 4.185,2.136 13.489,-0.488c1.037,-0.289 2.119,0.312 2.412,1.351c0.293,1.039 -0.313,2.118 -1.35,2.412c-4.179,1.179 -7.436,1.617 -9.966,1.617" style="fill-rule:nonzero;"/><path d="M110.044,42.416c-2.16,0 -3.91,1.75 -3.91,3.909c0,2.16 1.75,3.91 3.91,3.91c2.159,0 3.909,-1.75 3.909,-3.91c0,-2.159 -1.75,-3.909 -3.909,-3.909m-45.175,10.859c-2.158,0 -3.91,1.75 -3.91,3.909c0,2.159 1.752,3.91 3.91,3.91c2.159,0 3.909,-1.751 3.909,-3.91c0,-2.159 -1.75,-3.909 -3.909,-3.909m21.285,-0.435c3.909,-0.436 3.474,3.909 0,6.515c-3.205,2.403 -3.476,2.172 -6.951,1.739c-3.474,-0.434 -4.411,-3.317 -1.303,-5.648c1.738,-1.303 4.344,-2.171 8.254,-2.606" style="fill-rule:nonzero;"/><path d="M116.187,67.486c0,0 18.173,2.919 32.072,21.813" style="fill:none;stroke:#000;stroke-width:3px;"/></g><path d="M166.777,81.51c-4.502,-0.002 -8.632,2.999 -9.849,7.541c-1.452,5.421 1.785,11.016 7.217,12.472c0.881,0.235 1.766,0.348 2.637,0.349l0.031,0c4.49,-0.012 8.603,-3.01 9.818,-7.542c1.452,-5.42 -1.785,-11.015 -7.217,-12.47c-0.87,-0.233 -1.745,-0.346 -2.605,-0.35l-0.032,0Zm-0.049,10.996l-4.723,6.994c0.731,0.445 1.536,0.798 2.406,1.031c1.031,0.276 2.068,0.363 3.075,0.287c-0.013,-0.045 -0.024,-0.091 -0.031,-0.139l-0.727,-8.173Zm8.96,-2.973c-0.038,0.291 -0.097,0.599 -0.184,0.925c-0.24,0.896 -0.679,1.859 -1.522,2.985l-4.797,7.081c3.044,-0.826 5.578,-3.199 6.451,-6.46c0.412,-1.537 0.406,-3.087 0.052,-4.531Zm-17.766,-0.215c-0.937,3.498 0.29,7.068 2.861,9.292l-1.13,-12.684c-0.786,0.967 -1.387,2.11 -1.731,3.392Zm14.956,3.529c0.293,-1.093 0.102,-1.954 -0.077,-2.633c-0.254,-0.849 -0.51,-1.578 -0.315,-2.307c0.218,-0.812 1.038,-1.403 1.908,-1.17c0.039,0.011 0.075,0.025 0.113,0.038c-1.19,-1.863 -3.053,-3.306 -5.359,-3.923c-3.095,-0.83 -6.241,0.026 -8.468,2.001c0.206,0.062 0.401,0.119 0.567,0.163c0.926,0.248 2.391,0.52 2.391,0.52c0.485,0.1 0.353,0.815 -0.139,0.744c0,0 -0.495,-0.073 -1.036,-0.188l0.66,10.439l3.493,-5.282l-0.369,-4.143c-0.47,-0.156 -0.906,-0.333 -0.906,-0.333c-0.47,-0.156 -0.219,-0.869 0.251,-0.713c0,0 1.432,0.504 2.303,0.737c0.926,0.249 2.39,0.521 2.39,0.521c0.485,0.1 0.354,0.815 -0.138,0.743c0,0 -0.496,-0.073 -1.036,-0.187l0.654,10.359l1.673,-2.709c0.711,-1.121 1.237,-1.92 1.44,-2.677Z" style="fill:#5d4429;"/><g id="casquette-2"><path d="M88.824,23.944c-7.558,0.35 -9.096,5.066 -10.79,10.794c-4.914,0.286 -9.786,2.322 -12.755,6.007c-2.513,-1.889 -4.523,-3.999 -5.678,-6.215c-1.986,-3.809 -2.758,-10.086 1.392,-15.524c2.822,-3.7 8.698,-10.286 17.572,-8.237c8.874,2.049 16.751,7.439 32.263,13.67c10.154,4.078 19.21,8.149 19.21,8.149c0,0 -0.118,4.937 -7.673,2.332c-7.556,-2.605 -25.983,-11.327 -33.541,-10.976Z" style="fill:#402c10;"/><path d="M72.573,12.46c3.147,-1.902 2.556,-2.722 10.802,-3.75c8.245,-1.028 4.998,-2.476 11.658,-2.939c6.661,-0.463 10.412,-0.063 15.755,0.031c5.344,0.093 7.739,-0.238 13.34,-0.411c5.601,-0.172 8.771,-1.302 16.595,1.296c7.823,2.597 10.839,5.085 16.536,8.006c5.696,2.921 8.681,4.377 12.203,6.075c3.523,1.698 10.361,6.906 9.993,12.336c-0.368,5.431 0.196,6.387 0.355,11.572c0.16,5.185 3.203,8.557 0.365,11.815c-2.838,3.257 -1.726,4.769 -4.643,5.375c-2.918,0.607 -5.557,-7.024 -11.028,-11.257c-2.806,-2.171 -3.555,-12.839 -10.914,-14.233c-3.827,-0.725 -6.322,3.494 -9.292,2.715c-5.494,-1.44 -11.881,-3.131 -14.26,-4.896c-6.012,-4.459 -11.084,-5.939 -20.045,-10.823c-8.962,-4.884 -14.806,-7.336 -22.943,-9.098c-5.478,-1.187 -7.69,-2.475 -14.477,-1.814Z" style="fill:#997440;"/><clipPath id="_clip1"><path d="M72.573,12.46c3.147,-1.902 2.556,-2.722 10.802,-3.75c8.245,-1.028 4.998,-2.476 11.658,-2.939c6.661,-0.463 10.412,-0.063 15.755,0.031c5.344,0.093 7.739,-0.238 13.34,-0.411c5.601,-0.172 8.771,-1.302 16.595,1.296c7.823,2.597 10.839,5.085 16.536,8.006c5.696,2.921 8.681,4.377 12.203,6.075c3.523,1.698 10.361,6.906 9.993,12.336c-0.368,5.431 0.196,6.387 0.355,11.572c0.16,5.185 3.203,8.557 0.365,11.815c-2.838,3.257 -1.726,4.769 -4.643,5.375c-2.918,0.607 -5.557,-7.024 -11.028,-11.257c-2.806,-2.171 -3.555,-12.839 -10.914,-14.233c-3.827,-0.725 -6.322,3.494 -9.292,2.715c-5.494,-1.44 -11.881,-3.131 -14.26,-4.896c-6.012,-4.459 -11.084,-5.939 -20.045,-10.823c-8.962,-4.884 -14.806,-7.336 -22.943,-9.098c-5.478,-1.187 -7.69,-2.475 -14.477,-1.814Z"/></clipPath><g clip-path="url(#_clip1)"><g><g opacity="0.3"><path d="M192.598,23.357l0.109,0.03l0.091,0.074c0.059,0.108 0.059,0.109 0.077,0.234l-0.026,0.123l-0.066,0.103l-0.095,0.067l-0.111,0.02l-122.718,-5.06c-0.108,-0.029 -0.109,-0.03 -0.2,-0.104l-0.059,-0.108l-0.018,-0.125l0.026,-0.124c0.057,-0.089 0.065,-0.129 0.161,-0.17c0.036,-0.015 0.074,-0.013 0.111,-0.02c40.906,1.687 81.812,3.373 122.718,5.06Z" style="fill-rule:nonzero;"/><path d="M190.304,25.919c0.108,0.029 0.109,0.029 0.2,0.103l0.059,0.109l0.018,0.125l-0.026,0.124l-0.066,0.103l-0.095,0.067l-0.111,0.02l-122.718,-5.06c-0.109,-0.03 -0.109,-0.03 -0.2,-0.104l-0.059,-0.108c-0.018,-0.125 -0.018,-0.127 0.008,-0.25l0.066,-0.103l0.095,-0.066l0.111,-0.021c40.906,1.687 81.812,3.374 122.718,5.061Z" style="fill-rule:nonzero;"/><path d="M187.985,28.479l0.11,0.03l0.091,0.074l0.058,0.108l0.018,0.126l-0.026,0.123l-0.065,0.103c-0.095,0.067 -0.096,0.067 -0.207,0.087l-122.717,-5.06c-0.109,-0.029 -0.11,-0.029 -0.2,-0.104l-0.059,-0.108l-0.018,-0.125l0.026,-0.124l0.065,-0.103l0.096,-0.067l0.111,-0.02c40.906,1.687 81.811,3.374 122.717,5.06Z" style="fill-rule:nonzero;"/><path d="M185.801,31.044c0.109,0.029 0.11,0.03 0.2,0.104l0.059,0.108l0.018,0.126l-0.026,0.123l-0.066,0.103l-0.095,0.067l-0.111,0.02l-122.717,-5.06l-0.11,-0.029l-0.091,-0.075c-0.058,-0.107 -0.059,-0.109 -0.077,-0.233l0.026,-0.124c0.066,-0.103 0.067,-0.103 0.162,-0.17l0.11,-0.02c40.906,1.687 81.812,3.373 122.718,5.06Z" style="fill-rule:nonzero;"/><path d="M183.617,33.609c0.108,0.029 0.109,0.03 0.2,0.104l0.059,0.108l0.018,0.126l-0.026,0.123l-0.066,0.103l-0.095,0.067l-0.111,0.02l-122.718,-5.06c-0.108,-0.029 -0.109,-0.03 -0.2,-0.104l-0.059,-0.108c-0.018,-0.125 -0.018,-0.126 0.008,-0.249l0.066,-0.103c0.095,-0.067 0.096,-0.067 0.206,-0.087c40.906,1.687 81.812,3.373 122.718,5.06Z" style="fill-rule:nonzero;"/><path d="M181.432,36.174l0.11,0.029l0.091,0.075l0.058,0.108l0.018,0.125c-0.025,0.123 -0.026,0.124 -0.091,0.227l-0.096,0.067l-0.111,0.02l-122.717,-5.06c-0.095,-0.026 -0.13,-0.018 -0.2,-0.104c-0.026,-0.031 -0.04,-0.072 -0.059,-0.108l-0.018,-0.126l0.026,-0.123l0.065,-0.103l0.096,-0.067l0.111,-0.02c40.906,1.686 81.811,3.373 122.717,5.06Z" style="fill-rule:nonzero;"/><path d="M203.382,10.4l0.109,0.029l0.091,0.075l0.059,0.108l0.018,0.126c-0.026,0.123 -0.026,0.124 -0.091,0.226l-0.096,0.067l-0.111,0.02l-122.717,-5.06c-0.109,-0.029 -0.11,-0.03 -0.201,-0.104l-0.058,-0.108c-0.018,-0.125 -0.018,-0.126 0.008,-0.249l0.065,-0.103l0.096,-0.067l0.111,-0.02c40.905,1.687 81.811,3.373 122.717,5.06Z" style="fill-rule:nonzero;"/><path d="M201.198,12.965l0.109,0.029l0.091,0.075l0.059,0.108l0.018,0.125l-0.026,0.124l-0.066,0.103l-0.095,0.067l-0.111,0.02l-122.718,-5.06l-0.109,-0.029l-0.091,-0.075l-0.059,-0.108l-0.018,-0.126l0.026,-0.123l0.066,-0.103l0.095,-0.067l0.111,-0.02c40.906,1.686 81.812,3.373 122.718,5.06Z" style="fill-rule:nonzero;"/><path d="M199.014,15.53c0.036,0.01 0.075,0.012 0.109,0.029c0.093,0.049 0.099,0.089 0.15,0.183l0.018,0.125c-0.026,0.123 -0.027,0.125 -0.092,0.227l-0.096,0.067l-0.11,0.02l-122.718,-5.06c-0.109,-0.029 -0.11,-0.03 -0.2,-0.104l-0.059,-0.108l-0.018,-0.126l0.026,-0.123l0.066,-0.103l0.095,-0.067l0.111,-0.02c40.906,1.686 81.812,3.373 122.718,5.06Z" style="fill-rule:nonzero;"/><path d="M196.829,18.095l0.109,0.029l0.091,0.074c0.059,0.108 0.059,0.109 0.077,0.234l-0.026,0.124l-0.065,0.103l-0.096,0.067l-0.111,0.02l-122.717,-5.06c-0.095,-0.026 -0.13,-0.019 -0.201,-0.104c-0.025,-0.031 -0.039,-0.072 -0.058,-0.108l-0.018,-0.126l0.026,-0.124l0.065,-0.103c0.095,-0.066 0.096,-0.066 0.207,-0.087c40.905,1.687 81.811,3.374 122.717,5.061Z" style="fill-rule:nonzero;"/><path d="M194.645,20.66l0.109,0.029l0.091,0.074l0.059,0.109l0.018,0.125c-0.026,0.123 -0.026,0.124 -0.092,0.227l-0.095,0.066l-0.111,0.021l-122.718,-5.061c-0.108,-0.029 -0.109,-0.029 -0.2,-0.103l-0.059,-0.108c-0.018,-0.125 -0.018,-0.127 0.008,-0.25l0.066,-0.103l0.095,-0.066l0.111,-0.021c40.906,1.687 81.812,3.374 122.718,5.061Z" style="fill-rule:nonzero;"/></g></g></g><path d="M131.608,3.045c0.602,0.008 1.203,0.03 1.802,0.075c0.851,0.065 1.699,0.172 2.54,0.318c2.088,0.361 4.126,0.955 6.128,1.643c1.326,0.457 2.638,0.953 3.93,1.5c1.186,0.503 2.353,1.049 3.5,1.634c1.947,0.993 3.832,2.1 5.736,3.172c0.309,0.172 0.619,0.344 0.93,0.516c0.656,0.357 1.314,0.709 1.978,1.051c0.976,0.5 1.953,0.998 2.931,1.495c1.773,0.898 3.55,1.79 5.334,2.667c0.863,0.424 1.728,0.845 2.594,1.264c0.497,0.24 0.995,0.478 1.491,0.721c0.196,0.099 0.196,0.099 0.392,0.202c0.974,0.523 1.909,1.113 2.808,1.758c0.631,0.453 1.245,0.933 1.837,1.438c0.465,0.398 0.917,0.811 1.353,1.241c0.333,0.329 0.656,0.668 0.968,1.018c0.244,0.273 0.481,0.554 0.71,0.841c1.347,1.691 2.441,3.664 2.761,5.827c0.072,0.49 0.098,0.982 0.09,1.476c-0.016,0.425 -0.048,0.848 -0.072,1.272c-0.057,1.176 -0.083,2.351 -0.032,3.526c0.051,1.201 0.173,2.397 0.268,3.594c0.027,0.369 0.053,0.738 0.077,1.107c0.034,0.576 0.064,1.152 0.085,1.728c0.012,0.301 0.019,0.6 0.037,0.9c0.009,0.137 0.021,0.272 0.033,0.408c0.036,0.334 0.079,0.666 0.135,0.997c0.088,0.523 0.204,1.039 0.329,1.553c0.193,0.771 0.408,1.535 0.603,2.305c0.197,0.796 0.365,1.598 0.428,2.417c0.058,0.743 0.013,1.499 -0.161,2.225c-0.123,0.51 -0.31,1.004 -0.554,1.468c-0.178,0.338 -0.385,0.66 -0.616,0.965c-0.175,0.23 -0.368,0.446 -0.553,0.668c-0.1,0.122 -0.197,0.245 -0.293,0.369c-0.301,0.403 -0.578,0.822 -0.819,1.264c-0.248,0.455 -0.459,0.929 -0.692,1.393c-0.053,0.103 -0.108,0.205 -0.165,0.307c-0.129,0.224 -0.266,0.442 -0.424,0.647c-0.245,0.318 -0.532,0.603 -0.856,0.84c-0.433,0.318 -0.923,0.548 -1.433,0.713c-0.213,0.068 -0.429,0.126 -0.647,0.175c-0.304,0.069 -0.608,0.115 -0.921,0.113c-0.197,-0.002 -0.393,-0.019 -0.587,-0.053c-0.141,-0.023 -0.28,-0.056 -0.417,-0.095c-1.106,-0.319 -2.004,-1.101 -2.764,-1.935c-0.14,-0.154 -0.277,-0.311 -0.411,-0.471c-0.165,-0.196 -0.325,-0.395 -0.483,-0.597c-0.274,-0.349 -0.538,-0.705 -0.801,-1.063c-0.556,-0.763 -1.103,-1.532 -1.661,-2.293c-0.996,-1.348 -2.033,-2.674 -3.227,-3.855c-0.31,-0.307 -0.631,-0.604 -0.963,-0.887c-0.22,-0.188 -0.448,-0.365 -0.674,-0.546l-0.112,-0.097c-0.178,-0.162 -0.346,-0.331 -0.502,-0.514c-0.418,-0.487 -0.755,-1.039 -1.054,-1.605c-0.331,-0.627 -0.615,-1.278 -0.892,-1.93c-0.347,-0.83 -0.681,-1.665 -1.03,-2.494c-0.238,-0.559 -0.481,-1.116 -0.745,-1.663c-0.151,-0.314 -0.308,-0.624 -0.473,-0.931c-0.138,-0.255 -0.282,-0.508 -0.432,-0.757c-0.793,-1.308 -1.81,-2.554 -3.197,-3.257c-0.365,-0.185 -0.749,-0.329 -1.145,-0.431c-0.195,-0.051 -0.394,-0.095 -0.594,-0.118c-0.217,-0.025 -0.437,-0.023 -0.654,0.002c-0.796,0.094 -1.53,0.481 -2.219,0.867c-0.508,0.289 -1.008,0.594 -1.518,0.881c-0.471,0.262 -0.951,0.509 -1.454,0.703c-0.709,0.274 -1.46,0.44 -2.222,0.425c-0.348,-0.007 -0.69,-0.055 -1.029,-0.131c-0.387,-0.096 -0.772,-0.201 -1.157,-0.302c-0.531,-0.14 -1.061,-0.281 -1.591,-0.422c-2.423,-0.652 -4.847,-1.319 -7.218,-2.143c-0.816,-0.283 -1.626,-0.586 -2.418,-0.928c-0.873,-0.376 -1.723,-0.801 -2.508,-1.34c-0.23,-0.167 -0.459,-0.336 -0.69,-0.503c-1.19,-0.848 -2.416,-1.64 -3.683,-2.37c-1.622,-0.935 -3.297,-1.771 -4.979,-2.591c-1.262,-0.611 -2.527,-1.216 -3.79,-1.827c-1.599,-0.779 -3.191,-1.571 -4.767,-2.396c-1.369,-0.718 -2.722,-1.465 -4.086,-2.192c-0.515,-0.272 -1.03,-0.542 -1.546,-0.81c-1.76,-0.906 -3.535,-1.783 -5.342,-2.591c-1.833,-0.821 -3.697,-1.571 -5.596,-2.227c-1.768,-0.61 -3.564,-1.138 -5.379,-1.594c-0.596,-0.15 -1.194,-0.292 -1.793,-0.427c-0.504,-0.114 -1.009,-0.222 -1.512,-0.337c-0.4,-0.092 -0.799,-0.188 -1.197,-0.285c-0.964,-0.24 -1.925,-0.491 -2.889,-0.73c-0.308,-0.074 -0.616,-0.146 -0.926,-0.216c-0.481,-0.104 -0.964,-0.201 -1.451,-0.279c-0.635,-0.102 -1.274,-0.175 -1.916,-0.218c-1.577,-0.104 -3.157,-0.024 -4.728,0.123l-0.276,0.007c-0.092,-0.011 -0.184,-0.016 -0.275,-0.033c-0.271,-0.052 -0.531,-0.162 -0.757,-0.322c-0.151,-0.106 -0.286,-0.233 -0.402,-0.377c-0.348,-0.435 -0.495,-1.011 -0.398,-1.56c0.032,-0.182 0.09,-0.358 0.171,-0.524c0.122,-0.248 0.297,-0.469 0.511,-0.645c0.134,-0.11 0.225,-0.16 0.363,-0.244c0.122,-0.076 0.244,-0.154 0.365,-0.232c0.148,-0.096 0.294,-0.195 0.44,-0.294c0.341,-0.236 0.679,-0.477 1.02,-0.713c0.146,-0.098 0.291,-0.195 0.438,-0.289c0.467,-0.293 0.95,-0.555 1.458,-0.773c1.134,-0.486 2.346,-0.772 3.555,-1.005c1.007,-0.194 2.023,-0.348 3.04,-0.486c0.611,-0.083 1.224,-0.157 1.835,-0.24c0.324,-0.046 0.323,-0.046 0.646,-0.095c1.089,-0.174 2.19,-0.371 3.229,-0.751c0.244,-0.089 0.482,-0.19 0.716,-0.302c0.332,-0.16 0.656,-0.338 0.985,-0.503c0.124,-0.06 0.247,-0.119 0.372,-0.176c0.346,-0.152 0.698,-0.287 1.059,-0.397c0.923,-0.281 1.882,-0.426 2.839,-0.527c1.012,-0.107 2.029,-0.164 3.045,-0.215c1.923,-0.097 3.848,-0.13 5.773,-0.104c2.135,0.029 4.268,0.126 6.402,0.195c0.474,0.014 0.949,0.026 1.423,0.037c1.578,0.03 3.156,0.035 4.734,-0.009c2.04,-0.057 4.079,-0.184 6.118,-0.281c0.619,-0.027 1.238,-0.053 1.858,-0.076c0.589,-0.021 1.178,-0.037 1.766,-0.064c0.24,-0.011 0.479,-0.024 0.718,-0.038c1.077,-0.068 2.152,-0.155 3.229,-0.229c0.309,-0.019 0.617,-0.037 0.927,-0.053c0.477,-0.022 0.954,-0.037 1.433,-0.043c0.246,-0.001 0.246,-0.001 0.492,0Zm-0.46,3.91c-1.634,0.02 -3.262,0.174 -4.891,0.286c-0.422,0.027 -0.843,0.052 -1.266,0.073c-0.602,0.026 -1.204,0.043 -1.806,0.065c-0.462,0.016 -0.924,0.035 -1.386,0.055c-1.697,0.076 -3.394,0.172 -5.092,0.248c-1.817,0.074 -3.634,0.106 -5.452,0.082c-2.334,-0.031 -4.666,-0.139 -6.999,-0.209c-0.448,-0.013 -0.897,-0.023 -1.346,-0.032c-1.994,-0.032 -3.986,-0.01 -5.978,0.091c-0.944,0.048 -1.891,0.099 -2.831,0.199c-0.709,0.074 -1.425,0.17 -2.109,0.378c-0.205,0.063 -0.405,0.138 -0.601,0.226c-0.388,0.174 -0.758,0.384 -1.138,0.574c-0.132,0.064 -0.265,0.126 -0.398,0.188c-0.319,0.141 -0.642,0.272 -0.972,0.387c-0.65,0.226 -1.316,0.401 -1.988,0.547c-0.83,0.18 -1.669,0.318 -2.51,0.435c-0.728,0.102 -1.457,0.188 -2.185,0.288c-0.211,0.03 -0.422,0.061 -0.633,0.092l-0.021,0.003c0.252,0.055 0.503,0.112 0.754,0.17c1.103,0.265 2.2,0.555 3.301,0.829c0.457,0.112 0.915,0.221 1.374,0.325c0.548,0.123 1.097,0.242 1.644,0.367c0.377,0.088 0.754,0.177 1.13,0.269c1.693,0.421 3.372,0.89 5.03,1.432c2.123,0.694 4.208,1.499 6.255,2.392c2.387,1.042 4.723,2.199 7.03,3.408c1.368,0.717 2.72,1.461 4.082,2.188c0.515,0.273 1.032,0.544 1.55,0.813c1.069,0.549 2.144,1.088 3.223,1.617c1.484,0.726 2.976,1.435 4.463,2.154c0.594,0.29 1.186,0.581 1.777,0.876c1.657,0.837 3.292,1.716 4.869,2.696c0.681,0.423 1.35,0.863 2.008,1.321c0.419,0.291 0.829,0.593 1.242,0.892c0.09,0.062 0.181,0.121 0.274,0.179c0.437,0.263 0.895,0.488 1.362,0.694c0.486,0.215 0.981,0.411 1.48,0.597c1.365,0.507 2.757,0.939 4.154,1.349c1.381,0.404 2.769,0.783 4.159,1.152c0.35,0.093 0.7,0.185 1.05,0.277c0.297,0.079 0.738,0.215 1.108,0.288c0.053,0.01 0.106,0.015 0.161,0.017c0.285,0.002 0.566,-0.092 0.826,-0.2c0.34,-0.14 0.663,-0.318 0.983,-0.498c0.462,-0.267 0.92,-0.542 1.385,-0.807c0.377,-0.211 0.759,-0.415 1.152,-0.596c0.631,-0.29 1.29,-0.524 1.972,-0.66c0.573,-0.114 1.159,-0.158 1.743,-0.124c0.363,0.021 0.723,0.074 1.079,0.15c0.75,0.159 1.481,0.406 2.173,0.738c0.478,0.23 0.937,0.5 1.371,0.804c0.264,0.185 0.519,0.383 0.765,0.592c1.984,1.685 3.284,4.011 4.331,6.356c0.222,0.496 0.433,0.997 0.641,1.499c0.263,0.636 0.52,1.275 0.786,1.91c0.101,0.239 0.204,0.477 0.309,0.715c0.191,0.419 0.386,0.837 0.619,1.235c0.143,0.244 0.299,0.498 0.509,0.691c0.056,0.047 0.116,0.091 0.173,0.137c0.128,0.1 0.156,0.124 0.282,0.226c0.457,0.38 0.9,0.776 1.326,1.191c0.935,0.911 1.792,1.9 2.6,2.925c1.033,1.308 1.981,2.678 2.969,4.02c0.143,0.194 0.288,0.387 0.434,0.578c0.323,0.416 0.651,0.829 1.017,1.208c0.212,0.218 0.438,0.441 0.705,0.591c0.019,0.01 0.019,0.01 0.039,0.019c0.007,0.004 0.006,0.001 0.017,-0.002c0.03,-0.007 0.06,-0.014 0.09,-0.021c0.053,-0.013 0.105,-0.027 0.157,-0.043c0.06,-0.017 0.119,-0.037 0.177,-0.059c0.075,-0.029 0.154,-0.061 0.218,-0.111c0.047,-0.037 0.081,-0.089 0.114,-0.139c0.045,-0.07 0.086,-0.144 0.125,-0.218c0.038,-0.073 0.058,-0.114 0.1,-0.198c0.157,-0.324 0.312,-0.648 0.473,-0.97c0.355,-0.688 0.756,-1.348 1.216,-1.971c0.164,-0.223 0.335,-0.441 0.511,-0.655c0.137,-0.165 0.281,-0.325 0.416,-0.493c0.061,-0.079 0.119,-0.16 0.174,-0.243c0.132,-0.206 0.24,-0.424 0.311,-0.659c0.124,-0.413 0.129,-0.852 0.089,-1.278c-0.053,-0.553 -0.179,-1.096 -0.311,-1.633c-0.178,-0.702 -0.371,-1.399 -0.552,-2.1c-0.253,-1.009 -0.469,-2.027 -0.586,-3.061c-0.035,-0.31 -0.062,-0.62 -0.079,-0.931c-0.025,-0.437 -0.034,-0.874 -0.052,-1.312c-0.019,-0.398 -0.039,-0.795 -0.063,-1.193c-0.076,-1.174 -0.186,-2.345 -0.275,-3.518c-0.022,-0.311 -0.041,-0.622 -0.059,-0.933c-0.053,-1.104 -0.06,-2.208 -0.021,-3.312c0.016,-0.466 0.039,-0.932 0.067,-1.397c0.014,-0.229 0.033,-0.457 0.041,-0.685c0.001,-0.088 0.001,-0.176 -0.001,-0.264c-0.009,-0.211 -0.029,-0.42 -0.063,-0.628c-0.123,-0.737 -0.401,-1.442 -0.752,-2.098c-0.657,-1.227 -1.567,-2.312 -2.553,-3.286c-0.368,-0.364 -0.751,-0.714 -1.144,-1.05c-0.569,-0.486 -1.162,-0.944 -1.774,-1.375c-0.743,-0.522 -1.514,-1.001 -2.318,-1.421c-0.529,-0.268 -1.066,-0.519 -1.599,-0.777c-0.873,-0.422 -1.745,-0.848 -2.616,-1.275c-2.788,-1.373 -5.561,-2.776 -8.327,-4.193c-0.268,-0.138 -0.536,-0.277 -0.803,-0.417c-0.588,-0.312 -1.173,-0.63 -1.755,-0.952c-1.21,-0.675 -2.412,-1.366 -3.62,-2.045c-1.357,-0.755 -2.727,-1.484 -4.135,-2.139c-1.709,-0.795 -3.465,-1.487 -5.247,-2.1c-1.886,-0.649 -3.807,-1.211 -5.778,-1.531c-1.143,-0.185 -2.295,-0.278 -3.453,-0.292c-0.214,-0.001 -0.213,-0.001 -0.427,0Z" style="fill-rule:nonzero;"/><path d="M92.535,6.307c0.466,0.014 0.93,0.049 1.391,0.121c0.788,0.122 1.559,0.339 2.301,0.629c1.334,0.521 2.56,1.271 3.805,1.968c0.242,0.133 0.241,0.133 0.484,0.264c0.41,0.217 0.822,0.427 1.244,0.616c0.575,0.258 1.165,0.481 1.77,0.657c0.794,0.231 1.61,0.381 2.434,0.458c0.517,0.048 1.036,0.065 1.556,0.064l0.099,0.004c0.101,0.011 0.197,0.026 0.294,0.057c0.222,0.07 0.424,0.201 0.58,0.375c0.338,0.379 0.424,0.936 0.217,1.4c-0.055,0.121 -0.128,0.234 -0.216,0.334c-0.089,0.099 -0.193,0.185 -0.307,0.253c-0.176,0.105 -0.365,0.156 -0.566,0.18c-0.164,0.006 -0.164,0.003 -0.328,0.004c-0.596,-0.007 -1.191,-0.035 -1.784,-0.097c-1.037,-0.11 -2.062,-0.321 -3.056,-0.636c-0.753,-0.239 -1.486,-0.537 -2.199,-0.879c-0.505,-0.241 -0.998,-0.506 -1.487,-0.776c-0.564,-0.315 -1.123,-0.638 -1.688,-0.951c-0.939,-0.51 -1.902,-0.981 -2.947,-1.23c-0.366,-0.087 -0.739,-0.147 -1.114,-0.18c-1.657,-0.145 -3.303,0.241 -4.864,0.767l-0.095,0.028c-0.099,0.021 -0.195,0.038 -0.297,0.039c-0.233,0.005 -0.466,-0.055 -0.669,-0.17c-0.116,-0.066 -0.221,-0.15 -0.311,-0.248c-0.345,-0.373 -0.442,-0.928 -0.242,-1.396c0.052,-0.122 0.123,-0.236 0.21,-0.337c0.133,-0.155 0.296,-0.265 0.479,-0.351c0.162,-0.061 0.162,-0.058 0.326,-0.114c0.936,-0.303 1.887,-0.557 2.861,-0.706c0.581,-0.089 1.164,-0.136 1.752,-0.148c0.184,-0.001 0.183,-0.001 0.367,0.001Z" style="fill-rule:nonzero;"/><path d="M151.5,31.062c0.466,0.014 0.93,0.05 1.392,0.121c0.788,0.122 1.558,0.339 2.301,0.629c1.333,0.521 2.559,1.271 3.805,1.968c0.241,0.133 0.241,0.133 0.484,0.264c0.409,0.217 0.821,0.427 1.244,0.616c0.574,0.258 1.165,0.481 1.769,0.657c0.795,0.231 1.611,0.381 2.435,0.458c0.517,0.048 1.036,0.065 1.555,0.064l0.1,0.004c0.1,0.012 0.197,0.026 0.294,0.057c0.222,0.07 0.424,0.201 0.579,0.375c0.339,0.379 0.425,0.936 0.218,1.4c-0.055,0.121 -0.128,0.234 -0.217,0.334c-0.088,0.099 -0.192,0.185 -0.306,0.253c-0.176,0.105 -0.365,0.156 -0.566,0.18c-0.164,0.006 -0.164,0.004 -0.328,0.004c-0.597,-0.007 -1.191,-0.035 -1.784,-0.097c-1.037,-0.11 -2.062,-0.321 -3.056,-0.636c-0.753,-0.239 -1.487,-0.537 -2.199,-0.879c-0.505,-0.241 -0.998,-0.506 -1.488,-0.776c-0.563,-0.315 -1.123,-0.638 -1.688,-0.951c-0.938,-0.51 -1.901,-0.981 -2.946,-1.23c-0.366,-0.087 -0.739,-0.147 -1.114,-0.18c-1.657,-0.145 -3.304,0.241 -4.864,0.767l-0.096,0.028c-0.198,0.042 -0.394,0.054 -0.593,0.011c-0.497,-0.107 -0.895,-0.506 -1.001,-1.003c-0.028,-0.13 -0.036,-0.265 -0.023,-0.397c0.013,-0.133 0.046,-0.263 0.099,-0.386c0.091,-0.214 0.241,-0.403 0.429,-0.54c0.082,-0.06 0.169,-0.105 0.26,-0.148c0.162,-0.061 0.162,-0.058 0.325,-0.113c0.937,-0.304 1.888,-0.558 2.862,-0.707c0.58,-0.089 1.164,-0.136 1.751,-0.148c0.184,-0.001 0.184,-0.001 0.367,0.001Z" style="fill-rule:nonzero;"/><path d="M124.803,1.311c3.092,-0.095 5.626,0.605 5.655,1.563c0.03,0.957 -2.457,1.811 -5.548,1.907c-3.092,0.095 -5.626,-0.605 -5.655,-1.563c-0.03,-0.957 2.456,-1.811 5.548,-1.907Z" style="fill:#997440;"/><path d="M125.528,0c0.437,0.006 0.874,0.023 1.31,0.059c0.361,0.029 0.721,0.071 1.078,0.127c0.25,0.039 0.499,0.085 0.745,0.14c0.194,0.043 0.386,0.092 0.577,0.147c0.145,0.043 0.29,0.089 0.432,0.14c0.773,0.278 1.577,0.725 1.927,1.509c0.059,0.132 0.103,0.271 0.131,0.412c0.029,0.149 0.04,0.3 0.032,0.451c-0.012,0.24 -0.072,0.476 -0.172,0.695c-0.302,0.665 -0.935,1.104 -1.576,1.407c-0.101,0.048 -0.202,0.092 -0.305,0.134c-0.686,0.283 -1.414,0.464 -2.143,0.596c-1.014,0.183 -2.046,0.267 -3.076,0.275c-0.444,0.003 -0.888,-0.009 -1.331,-0.038c-0.368,-0.024 -0.735,-0.06 -1.1,-0.11c-0.297,-0.04 -0.592,-0.09 -0.885,-0.152c-0.197,-0.042 -0.392,-0.088 -0.585,-0.142c-0.148,-0.04 -0.294,-0.085 -0.439,-0.134c-0.105,-0.036 -0.209,-0.074 -0.312,-0.115c-0.659,-0.263 -1.317,-0.663 -1.66,-1.308c-0.066,-0.124 -0.119,-0.256 -0.157,-0.392c-0.04,-0.144 -0.063,-0.293 -0.068,-0.442c-0.006,-0.198 0.02,-0.397 0.076,-0.587c0.026,-0.089 0.059,-0.176 0.098,-0.26c0.318,-0.7 0.998,-1.148 1.676,-1.454c0.622,-0.28 1.287,-0.466 1.954,-0.606c1.04,-0.219 2.101,-0.319 3.163,-0.347c0.203,-0.004 0.406,-0.006 0.61,-0.005Zm-0.285,2.606c-0.728,0.008 -1.455,0.055 -2.175,0.16c-0.578,0.083 -1.151,0.202 -1.707,0.381l-0.02,0.007c0.421,0.114 0.855,0.185 1.288,0.236c0.611,0.072 1.226,0.1 1.84,0.096c0.688,-0.005 1.376,-0.05 2.058,-0.143c0.618,-0.084 1.231,-0.207 1.825,-0.398l0.02,-0.007c-0.316,-0.085 -0.64,-0.146 -0.964,-0.193c-0.545,-0.08 -1.095,-0.119 -1.645,-0.134c-0.173,-0.004 -0.347,-0.005 -0.52,-0.005Z" style="fill-rule:nonzero;"/><path d="M90.976,24.457c-7.558,0.351 -11.416,3.265 -13.11,8.993c-5.999,2.023 -9.268,2.763 -13.564,7.918c-2.439,-1.859 -3.521,-3.058 -4.652,-5.228c-1.985,-3.808 -2.757,-10.085 1.393,-15.524c2.822,-3.699 8.633,-8.855 17.737,-8.241c12.794,0.862 23.879,7.151 31.854,11.262c9.701,5.001 18.918,10.578 18.918,10.578c0,0 -5.436,-0.671 -7.837,-1.05c-7.921,-1.247 -14.356,-2.17 -22.464,-5.275c-8.107,-3.105 -14.282,-7.973 -21.701,-8.815c-5.358,-0.608 -8.819,-0.244 -11.634,3.714" style="fill:none;"/><clipPath id="_clip2"><path d="M90.976,24.457c-7.558,0.351 -11.416,3.265 -13.11,8.993c-5.999,2.023 -9.268,2.763 -13.564,7.918c-2.439,-1.859 -3.521,-3.058 -4.652,-5.228c-1.985,-3.808 -2.757,-10.085 1.393,-15.524c2.822,-3.699 8.633,-8.855 17.737,-8.241c12.794,0.862 23.879,7.151 31.854,11.262c9.701,5.001 18.918,10.578 18.918,10.578c0,0 -5.436,-0.671 -7.837,-1.05c-7.921,-1.247 -14.356,-2.17 -22.464,-5.275c-8.107,-3.105 -14.282,-7.973 -21.701,-8.815c-5.358,-0.608 -8.819,-0.244 -11.634,3.714"/></clipPath><g clip-path="url(#_clip2)"><path d="M59.788,26.801c3.367,-15.252 18.145,-15.115 28.496,-12.566c15.134,3.727 42.366,19.715 35.57,17.947c-9.424,-2.452 -33.09,-7.875 -37.363,-11.118c-5.354,-4.946 -18.932,-5.035 -26.703,5.737Z" style="fill:#997440;"/></g><path d="M90.976,24.457c-7.558,0.351 -11.416,3.265 -13.11,8.993c-5.999,2.023 -9.268,2.763 -13.564,7.918c-2.439,-1.859 -3.521,-3.058 -4.652,-5.228c-1.985,-3.808 -2.757,-10.085 1.393,-15.524c2.822,-3.699 8.633,-8.855 17.737,-8.241c12.794,0.862 23.879,7.151 31.854,11.262c9.701,5.001 18.918,10.578 18.918,10.578c0,0 -5.436,-0.671 -7.837,-1.05c-7.921,-1.247 -14.356,-2.17 -22.464,-5.275c-8.107,-3.105 -14.282,-7.973 -21.701,-8.815c-5.358,-0.608 -8.819,-0.244 -11.634,3.714" style="fill:none;stroke:#000;stroke-width:3px;"/></g><path d="M154.968,39.181c-7.826,-0.358 -1.499,5.716 1.203,7.957c2.703,2.241 22.131,19.797 39.256,13.428c17.123,-6.369 21.682,-22.102 18.169,-22.897c-3.51,-0.796 -42.51,2.25 -58.628,1.512Z" style="fill:#f80;"/><path d="M211.263,34.036l0.259,0.001l0.251,0.003l0.242,0.005l0.234,0.005l0.226,0.008l0.218,0.008l0.212,0.011l0.206,0.012l0.202,0.015l0.199,0.018l0.19,0.021l0.111,0.014l0.103,0.015l0.106,0.016l0.111,0.019l0.115,0.022l0.131,0.028l0.153,0.038l0.161,0.045l0.161,0.052l0.16,0.059l0.158,0.064l0.155,0.07l0.153,0.076l0.15,0.081l0.146,0.086l0.142,0.092l0.139,0.096l0.133,0.101l0.128,0.103l0.124,0.108l0.119,0.111l0.113,0.113l0.108,0.115l0.103,0.118l0.097,0.118l0.093,0.12l0.088,0.122l0.083,0.122l0.077,0.122l0.073,0.122l0.069,0.123l0.065,0.122l0.06,0.123l0.056,0.121l0.053,0.121l0.05,0.122l0.046,0.121l0.042,0.12l0.039,0.118l0.037,0.118l0.034,0.119l0.031,0.117l0.029,0.118l0.026,0.115l0.024,0.116l0.022,0.115l0.02,0.115l0.017,0.114l0.016,0.113l0.014,0.113l0.012,0.113l0.011,0.113l0.009,0.112l0.007,0.111l0.006,0.112l0.005,0.112l0.003,0.111l0.001,0.111l0,0.111l-0.001,0.11l-0.002,0.111l-0.004,0.111l-0.004,0.111l-0.006,0.111l-0.008,0.111l-0.008,0.11l-0.009,0.111l-0.012,0.119l-0.023,0.214l-0.029,0.223l-0.033,0.224l-0.037,0.225l-0.041,0.225l-0.045,0.227l-0.048,0.228l-0.053,0.229l-0.057,0.23l-0.06,0.231l-0.065,0.233l-0.068,0.234l-0.072,0.235l-0.076,0.236l-0.08,0.238l-0.083,0.239l-0.087,0.241l-0.091,0.241l-0.095,0.243l-0.099,0.245l-0.102,0.245l-0.107,0.247l-0.11,0.248l-0.114,0.249l-0.118,0.25l-0.122,0.251l-0.126,0.253l-0.13,0.253l-0.134,0.254l-0.137,0.255l-0.142,0.256l-0.146,0.257l-0.149,0.257l-0.154,0.258l-0.158,0.259l-0.162,0.26l-0.166,0.259l-0.17,0.261l-0.174,0.261l-0.178,0.261l-0.182,0.261l-0.187,0.262l-0.19,0.261l-0.193,0.259l-0.101,0.134l-0.101,0.131l-0.101,0.131l-0.102,0.131l-0.103,0.131l-0.104,0.131l-0.106,0.131l-0.106,0.13l-0.108,0.131l-0.108,0.131l-0.11,0.13l-0.111,0.131l-0.111,0.13l-0.113,0.131l-0.114,0.13l-0.115,0.13l-0.116,0.13l-0.118,0.13l-0.118,0.129l-0.119,0.13l-0.121,0.129l-0.121,0.13l-0.123,0.129l-0.124,0.129l-0.125,0.128l-0.126,0.128l-0.127,0.129l-0.128,0.128l-0.129,0.128l-0.131,0.127l-0.131,0.127l-0.133,0.127l-0.134,0.127l-0.135,0.127l-0.136,0.126l-0.137,0.126l-0.138,0.125l-0.139,0.126l-0.141,0.125l-0.141,0.124l-0.143,0.125l-0.144,0.124l-0.145,0.123l-0.146,0.123l-0.147,0.123l-0.149,0.123l-0.149,0.122l-0.151,0.122l-0.152,0.121l-0.153,0.121l-0.154,0.12l-0.155,0.12l-0.156,0.119l-0.158,0.12l-0.159,0.118l-0.16,0.118l-0.16,0.118l-0.163,0.117l-0.163,0.117l-0.164,0.116l-0.166,0.115l-0.167,0.115l-0.168,0.115l-0.169,0.113l-0.17,0.114l-0.171,0.113l-0.173,0.112l-0.174,0.111l-0.175,0.111l-0.176,0.111l-0.177,0.109l-0.178,0.109l-0.18,0.109l-0.181,0.108l-0.182,0.107l-0.183,0.106l-0.184,0.106l-0.185,0.105l-0.187,0.105l-0.188,0.103l-0.189,0.103l-0.19,0.103l-0.191,0.101l-0.192,0.101l-0.194,0.1l-0.195,0.099l-0.196,0.099l-0.197,0.097l-0.199,0.097l-0.199,0.097l-0.201,0.095l-0.202,0.094l-0.203,0.094l-0.204,0.093l-0.206,0.092l-0.206,0.091l-0.208,0.09l-0.209,0.089l-0.211,0.089l-0.211,0.087l-0.212,0.087l-0.214,0.086l-0.215,0.084l-0.216,0.084l-0.218,0.083l-0.222,0.084l-0.23,0.084l-0.233,0.083l-0.234,0.08l-0.234,0.078l-0.234,0.076l-0.235,0.073l-0.235,0.07l-0.234,0.068l-0.235,0.066l-0.235,0.063l-0.235,0.061l-0.236,0.058l-0.235,0.057l-0.235,0.053l-0.236,0.052l-0.235,0.049l-0.235,0.047l-0.236,0.044l-0.235,0.042l-0.235,0.04l-0.236,0.038l-0.235,0.036l-0.235,0.033l-0.235,0.031l-0.235,0.029l-0.235,0.027l-0.234,0.025l-0.235,0.023l-0.234,0.02l-0.234,0.019l-0.234,0.016l-0.234,0.015l-0.233,0.012l-0.234,0.01l-0.233,0.009l-0.233,0.006l-0.232,0.005l-0.233,0.003l-0.232,0.001l-0.232,-0.002l-0.231,-0.002l-0.231,-0.005l-0.231,-0.007l-0.231,-0.008l-0.23,-0.01l-0.23,-0.012l-0.23,-0.014l-0.229,-0.015l-0.229,-0.017l-0.228,-0.019l-0.229,-0.02l-0.227,-0.022l-0.228,-0.024l-0.227,-0.025l-0.226,-0.027l-0.226,-0.028l-0.226,-0.03l-0.225,-0.031l-0.225,-0.033l-0.225,-0.035l-0.224,-0.036l-0.223,-0.037l-0.223,-0.039l-0.223,-0.04l-0.222,-0.042l-0.222,-0.043l-0.221,-0.044l-0.221,-0.045l-0.22,-0.047l-0.22,-0.049l-0.219,-0.049l-0.219,-0.051l-0.218,-0.052l-0.218,-0.054l-0.217,-0.054l-0.217,-0.056l-0.216,-0.057l-0.216,-0.058l-0.215,-0.059l-0.214,-0.061l-0.214,-0.061l-0.214,-0.063l-0.213,-0.063l-0.212,-0.065l-0.212,-0.066l-0.211,-0.067l-0.211,-0.068l-0.209,-0.069l-0.21,-0.069l-0.209,-0.071l-0.208,-0.072l-0.208,-0.073l-0.207,-0.073l-0.206,-0.075l-0.206,-0.075l-0.205,-0.076l-0.205,-0.078l-0.204,-0.078l-0.203,-0.078l-0.202,-0.08l-0.202,-0.08l-0.202,-0.081l-0.2,-0.082l-0.201,-0.083l-0.199,-0.084l-0.199,-0.084l-0.198,-0.085l-0.197,-0.085l-0.197,-0.086l-0.196,-0.087l-0.195,-0.088l-0.195,-0.088l-0.193,-0.088l-0.194,-0.09l-0.192,-0.09l-0.192,-0.09l-0.191,-0.091l-0.193,-0.093l-0.376,-0.183l-0.375,-0.187l-0.373,-0.188l-0.369,-0.191l-0.366,-0.191l-0.364,-0.194l-0.36,-0.194l-0.356,-0.196l-0.354,-0.198l-0.35,-0.198l-0.347,-0.199l-0.344,-0.2l-0.34,-0.2l-0.336,-0.201l-0.333,-0.202l-0.33,-0.202l-0.326,-0.202l-0.322,-0.202l-0.319,-0.203l-0.314,-0.202l-0.311,-0.202l-0.307,-0.202l-0.304,-0.201l-0.299,-0.2l-0.295,-0.2l-0.292,-0.2l-0.287,-0.198l-0.283,-0.197l-0.279,-0.196l-0.275,-0.195l-0.27,-0.194l-0.266,-0.192l-0.262,-0.19l-0.257,-0.189l-0.253,-0.187l-0.248,-0.185l-0.244,-0.183l-0.239,-0.181l-0.235,-0.179l-0.229,-0.176l-0.225,-0.174l-0.22,-0.171l-0.215,-0.168l-0.21,-0.166l-0.207,-0.164l-0.393,-0.314l-0.374,-0.303l-0.353,-0.288l-0.331,-0.273l-0.309,-0.257l-0.285,-0.239l-0.262,-0.221l-0.237,-0.2l-0.395,-0.335l-0.153,-0.13l-0.13,-0.109l-0.135,-0.113l-0.15,-0.126l-0.153,-0.131l-0.159,-0.136l-0.162,-0.142l-0.165,-0.146l-0.169,-0.151l-0.171,-0.156l-0.175,-0.16l-0.176,-0.164l-0.178,-0.168l-0.18,-0.172l-0.181,-0.176l-0.182,-0.18l-0.182,-0.183l-0.182,-0.187l-0.183,-0.19l-0.181,-0.194l-0.181,-0.196l-0.18,-0.2l-0.175,-0.199l-0.092,-0.107l-0.088,-0.104l-0.088,-0.105l-0.087,-0.105l-0.087,-0.106l-0.086,-0.107l-0.085,-0.109l-0.085,-0.109l-0.084,-0.11l-0.083,-0.111l-0.082,-0.113l-0.082,-0.113l-0.081,-0.115l-0.08,-0.116l-0.078,-0.117l-0.078,-0.119l-0.077,-0.12l-0.076,-0.122l-0.075,-0.124l-0.073,-0.125l-0.073,-0.128l-0.071,-0.13l-0.069,-0.132l-0.068,-0.134l-0.067,-0.138l-0.064,-0.14l-0.063,-0.144l-0.061,-0.147l-0.059,-0.151l-0.056,-0.154l-0.053,-0.159l-0.051,-0.164l-0.047,-0.168l-0.043,-0.174l-0.039,-0.179l-0.034,-0.185l-0.028,-0.191l-0.023,-0.197l-0.015,-0.203l-0.008,-0.21l0.001,-0.215l0.009,-0.201l0.011,-0.132l0.012,-0.114l0.014,-0.114l0.018,-0.117l0.02,-0.116l0.024,-0.118l0.027,-0.118l0.031,-0.119l0.033,-0.118l0.037,-0.119l0.041,-0.12l0.044,-0.118l0.047,-0.118l0.051,-0.117l0.055,-0.117l0.058,-0.114l0.061,-0.114l0.064,-0.112l0.067,-0.111l0.071,-0.109l0.073,-0.106l0.076,-0.104l0.079,-0.102l0.081,-0.099l0.082,-0.096l0.086,-0.094l0.087,-0.091l0.089,-0.087l0.09,-0.086l0.092,-0.082l0.093,-0.079l0.094,-0.076l0.095,-0.073l0.095,-0.07l0.097,-0.068l0.097,-0.065l0.097,-0.061l0.098,-0.06l0.098,-0.056l0.097,-0.054l0.099,-0.052l0.098,-0.05l0.099,-0.047l0.098,-0.044l0.098,-0.043l0.098,-0.04l0.098,-0.039l0.099,-0.037l0.098,-0.035l0.098,-0.033l0.097,-0.031l0.11,-0.034l0.183,-0.051l0.195,-0.05l0.195,-0.044l0.196,-0.039l0.196,-0.034l0.196,-0.03l0.198,-0.026l0.199,-0.022l0.2,-0.019l0.202,-0.015l0.203,-0.012l0.206,-0.009l0.208,-0.005l0.21,-0.003l0.213,0.001l0.216,0.003l0.219,0.006l0.208,0.009l0.381,0.016l0.375,0.015l0.384,0.013l0.393,0.012l0.401,0.011l0.409,0.01l0.417,0.009l0.425,0.007l0.433,0.006l0.44,0.005l0.447,0.004l0.455,0.003l0.46,0.001l0.468,0.001l0.474,-0.001l0.48,-0.001l0.486,-0.003l0.492,-0.003l0.498,-0.005l0.503,-0.005l0.509,-0.007l0.513,-0.007l0.519,-0.008l0.523,-0.009l0.528,-0.01l0.531,-0.011l1.079,-0.024l1.092,-0.028l1.107,-0.03l1.119,-0.033l1.131,-0.035l1.141,-0.038l1.149,-0.04l1.157,-0.042l1.162,-0.044l1.167,-0.046l1.171,-0.047l1.172,-0.049l1.172,-0.05l1.172,-0.051l1.169,-0.051l1.166,-0.053l1.161,-0.052l2.302,-0.107l2.266,-0.106l2.22,-0.105l2.163,-0.102l2.096,-0.098l2.017,-0.092l0.977,-0.044l0.953,-0.041l0.928,-0.04l0.903,-0.037l0.875,-0.034l0.848,-0.032l0.817,-0.03l0.787,-0.026l0.755,-0.023l0.722,-0.02l0.687,-0.016l0.333,-0.007l0.322,-0.005l0.314,-0.005l0.304,-0.004l0.296,-0.003l0.287,-0.001l0.277,-0.001l0.269,0.001Zm-0.533,3.5l-0.274,0.001l-0.284,0.003l-0.294,0.004l-0.304,0.004l-0.313,0.006l-0.324,0.006l-0.674,0.016l-0.71,0.02l-0.744,0.022l-0.778,0.026l-0.81,0.029l-0.84,0.032l-0.87,0.034l-0.897,0.037l-0.925,0.04l-0.949,0.041l-0.974,0.043l-2.013,0.092l-2.093,0.098l-2.162,0.102l-2.22,0.105l-2.268,0.106l-2.305,0.107l-1.163,0.053l-1.168,0.052l-1.172,0.052l-1.175,0.051l-1.175,0.05l-1.176,0.049l-1.174,0.047l-1.172,0.046l-1.167,0.044l-1.162,0.043l-1.155,0.04l-1.147,0.038l-1.137,0.036l-1.127,0.033l-1.115,0.03l-1.101,0.028l-1.086,0.024l-0.537,0.011l-0.533,0.01l-0.529,0.009l-0.524,0.009l-0.519,0.007l-0.514,0.007l-0.51,0.005l-0.504,0.005l-0.499,0.003l-0.493,0.003l-0.488,0.001l-0.481,0.001l-0.476,-0.001l-0.469,-0.001l-0.463,-0.003l-0.457,-0.004l-0.45,-0.005l-0.443,-0.007l-0.436,-0.007l-0.428,-0.009l-0.422,-0.01l-0.413,-0.011l-0.406,-0.013l-0.399,-0.014l-0.39,-0.015l-0.382,-0.016l-0.181,-0.008l-0.175,-0.005l-0.171,-0.002l-0.165,0l-0.161,0.001l-0.156,0.005l-0.151,0.006l-0.146,0.008l-0.141,0.011l-0.136,0.013l-0.132,0.014l-0.127,0.017l-0.123,0.019l-0.118,0.021l-0.114,0.022l-0.109,0.025l-0.105,0.026l-0.1,0.029l-0.049,0.014l-0.047,0.016l-0.047,0.016l-0.045,0.016l-0.045,0.016l-0.043,0.017l-0.043,0.018l-0.041,0.018l-0.04,0.018l-0.04,0.019l-0.038,0.019l-0.037,0.02l-0.037,0.02l-0.035,0.02l-0.035,0.021l-0.033,0.022l-0.032,0.021l-0.032,0.022l-0.03,0.023l-0.03,0.023l-0.029,0.023l-0.027,0.023l-0.027,0.024l-0.026,0.025l-0.025,0.024l-0.024,0.026l-0.023,0.025l-0.022,0.026l-0.022,0.026l-0.02,0.026l-0.02,0.027l-0.019,0.027l-0.017,0.028l-0.017,0.028l-0.017,0.028l-0.015,0.029l-0.014,0.028l-0.014,0.03l-0.013,0.029l-0.012,0.03l-0.011,0.03l-0.01,0.03l-0.01,0.031l-0.009,0.031l-0.008,0.031l-0.007,0.032l-0.007,0.032l-0.005,0.032l-0.005,0.033l-0.004,0.032l-0.004,0.033l-0.002,0.034l-0.004,0.067l0,0.068l0.003,0.07l0.005,0.07l0.008,0.071l0.011,0.073l0.014,0.073l0.016,0.074l0.018,0.075l0.021,0.075l0.024,0.077l0.026,0.077l0.028,0.077l0.03,0.079l0.033,0.079l0.035,0.08l0.037,0.08l0.039,0.081l0.041,0.082l0.044,0.082l0.045,0.082l0.047,0.083l0.048,0.083l0.051,0.084l0.052,0.084l0.054,0.084l0.056,0.085l0.057,0.085l0.059,0.085l0.06,0.086l0.061,0.085l0.063,0.086l0.064,0.086l0.066,0.086l0.067,0.086l0.068,0.086l0.069,0.086l0.07,0.086l0.071,0.086l0.072,0.086l0.073,0.086l0.074,0.085l0.15,0.171l0.152,0.17l0.156,0.169l0.157,0.167l0.159,0.166l0.16,0.164l0.161,0.161l0.161,0.16l0.161,0.157l0.161,0.154l0.16,0.151l0.159,0.147l0.157,0.145l0.155,0.14l0.152,0.137l0.15,0.132l0.146,0.128l0.143,0.123l0.139,0.119l0.134,0.113l0.129,0.108l0.139,0.116l0.163,0.137l0.396,0.337l0.233,0.197l0.255,0.214l0.276,0.232l0.299,0.248l0.319,0.264l0.339,0.277l0.36,0.291l0.38,0.304l0.197,0.156l0.202,0.159l0.206,0.162l0.212,0.164l0.215,0.167l0.221,0.169l0.225,0.171l0.229,0.174l0.234,0.175l0.238,0.178l0.242,0.179l0.246,0.181l0.251,0.182l0.255,0.184l0.258,0.185l0.263,0.187l0.267,0.188l0.271,0.188l0.274,0.19l0.278,0.19l0.282,0.191l0.286,0.191l0.289,0.192l0.293,0.193l0.297,0.192l0.299,0.193l0.304,0.192l0.306,0.193l0.31,0.192l0.313,0.192l0.317,0.191l0.319,0.191l0.323,0.19l0.325,0.19l0.329,0.188l0.331,0.188l0.334,0.186l0.337,0.185l0.34,0.184l0.343,0.182l0.345,0.181l0.348,0.179l0.35,0.178l0.353,0.175l0.355,0.173l0.178,0.086l0.179,0.085l0.18,0.085l0.18,0.084l0.181,0.084l0.181,0.083l0.182,0.082l0.183,0.082l0.183,0.081l0.183,0.08l0.184,0.08l0.185,0.079l0.185,0.079l0.185,0.077l0.186,0.077l0.187,0.076l0.187,0.076l0.188,0.074l0.188,0.074l0.188,0.073l0.189,0.072l0.189,0.072l0.19,0.07l0.19,0.07l0.191,0.069l0.191,0.068l0.191,0.067l0.192,0.066l0.193,0.065l0.192,0.064l0.193,0.064l0.194,0.062l0.194,0.061l0.194,0.061l0.194,0.059l0.195,0.058l0.196,0.058l0.195,0.056l0.196,0.055l0.196,0.054l0.197,0.053l0.197,0.052l0.197,0.051l0.198,0.049l0.197,0.049l0.199,0.047l0.198,0.046l0.199,0.045l0.198,0.044l0.2,0.042l0.199,0.041l0.2,0.04l0.2,0.039l0.2,0.038l0.2,0.036l0.201,0.035l0.2,0.033l0.201,0.032l0.202,0.031l0.201,0.03l0.201,0.028l0.202,0.027l0.202,0.025l0.202,0.024l0.202,0.022l0.203,0.021l0.202,0.02l0.203,0.018l0.203,0.017l0.203,0.015l0.203,0.013l0.203,0.012l0.203,0.011l0.203,0.009l0.204,0.007l0.203,0.006l0.204,0.004l0.203,0.003l0.204,0.001l0.204,-0.001l0.204,-0.003l0.204,-0.004l0.203,-0.005l0.204,-0.008l0.204,-0.009l0.204,-0.011l0.204,-0.012l0.204,-0.015l0.204,-0.016l0.204,-0.018l0.204,-0.019l0.204,-0.022l0.204,-0.023l0.203,-0.025l0.204,-0.027l0.204,-0.029l0.203,-0.031l0.204,-0.033l0.203,-0.034l0.204,-0.037l0.203,-0.038l0.203,-0.041l0.204,-0.042l0.203,-0.045l0.203,-0.046l0.202,-0.048l0.203,-0.051l0.202,-0.052l0.203,-0.054l0.202,-0.057l0.202,-0.059l0.202,-0.06l0.202,-0.063l0.201,-0.065l0.202,-0.067l0.201,-0.069l0.201,-0.072l0.201,-0.073l0.2,-0.075l0.199,-0.076l0.197,-0.077l0.197,-0.078l0.196,-0.078l0.194,-0.079l0.193,-0.08l0.192,-0.081l0.191,-0.082l0.19,-0.082l0.189,-0.083l0.187,-0.084l0.187,-0.085l0.185,-0.085l0.184,-0.086l0.183,-0.087l0.182,-0.088l0.181,-0.088l0.179,-0.089l0.179,-0.09l0.177,-0.09l0.177,-0.091l0.175,-0.092l0.174,-0.092l0.173,-0.093l0.172,-0.094l0.17,-0.094l0.17,-0.095l0.169,-0.096l0.167,-0.096l0.166,-0.097l0.166,-0.097l0.164,-0.098l0.163,-0.098l0.162,-0.099l0.161,-0.1l0.159,-0.1l0.159,-0.101l0.158,-0.101l0.156,-0.102l0.155,-0.102l0.155,-0.103l0.153,-0.103l0.152,-0.104l0.151,-0.104l0.15,-0.104l0.149,-0.106l0.148,-0.105l0.147,-0.106l0.145,-0.107l0.145,-0.106l0.144,-0.108l0.142,-0.107l0.141,-0.108l0.141,-0.109l0.139,-0.109l0.138,-0.109l0.137,-0.109l0.137,-0.11l0.135,-0.111l0.134,-0.11l0.133,-0.111l0.132,-0.111l0.13,-0.112l0.13,-0.112l0.129,-0.112l0.128,-0.112l0.126,-0.113l0.126,-0.113l0.125,-0.113l0.123,-0.114l0.123,-0.113l0.121,-0.114l0.121,-0.114l0.119,-0.115l0.118,-0.114l0.118,-0.115l0.116,-0.115l0.116,-0.115l0.114,-0.116l0.113,-0.115l0.112,-0.116l0.112,-0.116l0.11,-0.116l0.109,-0.116l0.108,-0.116l0.107,-0.116l0.107,-0.116l0.105,-0.117l0.104,-0.116l0.103,-0.117l0.102,-0.117l0.101,-0.117l0.1,-0.116l0.1,-0.117l0.098,-0.117l0.097,-0.117l0.096,-0.117l0.095,-0.117l0.094,-0.117l0.093,-0.117l0.093,-0.116l0.091,-0.117l0.09,-0.117l0.089,-0.117l0.089,-0.117l0.173,-0.233l0.17,-0.233l0.166,-0.232l0.161,-0.232l0.158,-0.232l0.155,-0.231l0.15,-0.23l0.146,-0.229l0.143,-0.229l0.139,-0.228l0.135,-0.227l0.131,-0.226l0.128,-0.224l0.124,-0.224l0.12,-0.222l0.116,-0.221l0.113,-0.22l0.108,-0.218l0.106,-0.217l0.101,-0.215l0.098,-0.214l0.094,-0.211l0.091,-0.21l0.087,-0.209l0.083,-0.206l0.08,-0.204l0.076,-0.202l0.073,-0.2l0.069,-0.198l0.065,-0.196l0.062,-0.193l0.058,-0.191l0.055,-0.188l0.052,-0.186l0.048,-0.183l0.044,-0.18l0.041,-0.178l0.038,-0.175l0.034,-0.172l0.031,-0.169l0.027,-0.166l0.024,-0.163l0.02,-0.16l0.017,-0.156l0.008,-0.077l0.006,-0.076l0.006,-0.075l0.005,-0.075l0.004,-0.074l0.003,-0.072l0.002,-0.072l0.002,-0.071l0,-0.07l0,-0.069l-0.001,-0.068l-0.002,-0.068l-0.002,-0.066l-0.004,-0.066l-0.004,-0.064l-0.005,-0.064l-0.006,-0.062l-0.007,-0.062l-0.007,-0.06l-0.008,-0.06l-0.009,-0.058l-0.01,-0.058l-0.011,-0.057l-0.012,-0.055l-0.012,-0.055l-0.013,-0.053l-0.014,-0.052l-0.015,-0.052l-0.015,-0.05l-0.016,-0.049l-0.018,-0.048l-0.017,-0.047l-0.019,-0.046l-0.02,-0.045l-0.02,-0.044l-0.021,-0.042l-0.022,-0.041l-0.022,-0.041l-0.024,-0.039l-0.024,-0.038l-0.025,-0.036l-0.025,-0.036l-0.027,-0.034l-0.027,-0.033l-0.028,-0.032l-0.029,-0.031l-0.029,-0.029l-0.03,-0.029l-0.032,-0.027l-0.031,-0.025l-0.033,-0.025l-0.033,-0.023l-0.034,-0.022l-0.035,-0.021l-0.036,-0.019l-0.036,-0.018l-0.037,-0.017l-0.038,-0.015l-0.039,-0.014l-0.039,-0.013l-0.04,-0.011l-0.041,-0.01l-0.042,-0.009l-0.046,-0.009l-0.05,-0.009l-0.052,-0.008l-0.056,-0.007l-0.058,-0.008l-0.127,-0.014l-0.139,-0.012l-0.151,-0.012l-0.163,-0.009l-0.176,-0.009l-0.186,-0.008l-0.198,-0.006l-0.21,-0.005l-0.221,-0.004l-0.231,-0.003l-0.243,-0.001l-0.253,-0.001l-0.264,0.001Z"/></g></svg>